<?xml version="1.0" encoding="utf-8"?>
<!-- Generator: Adobe Illustrator 19.1.0, SVG Export Plug-In . SVG Version: 6.00 Build 0)  -->
<!DOCTYPE svg PUBLIC "-//W3C//DTD SVG 1.1//EN" "http://www.w3.org/Graphics/SVG/1.1/DTD/svg11.dtd">
<svg version="1.1" id="Layer_1" xmlns="http://www.w3.org/2000/svg" xmlns:xlink="http://www.w3.org/1999/xlink" x="0px" y="0px"
	 width="30px" height="30px" viewBox="0 0 30 30" style="enable-background:new 0 0 30 30;" xml:space="preserve">
<style type="text/css">
	.st0{fill:#231F20;}
</style>
<path class="st0" d="M29.7,21.1c0,0-0.2,0.3-0.7,1c-0.2,0.3-0.6,0.7-1,1.2c-0.1,0.1-0.2,0.2-0.3,0.4c-0.1,0.1-0.2,0.2-0.4,0.4
	c-0.3,0.2-0.5,0.5-0.8,0.8c-1.2,1-2.9,2.1-5,2.9c-2.1,0.8-4.6,1.2-7.3,1c-2.7-0.3-5.6-1.2-8.1-3c-2.6-1.8-4.6-4.6-5.5-7.9
	C0.1,16-0.1,14.3,0,12.6c0.1-1.7,0.6-3.5,1.4-5.1C1.6,7.1,1.8,6.7,2,6.3l0.2-0.3l0.1-0.1l0,0c0,0,0,0,0.1-0.1l0-0.1l0.4-0.5
	C2.9,5.1,3,4.9,3.1,4.7l0.5-0.5c0.3-0.4,0.6-0.7,1-1c1.3-1.2,3-2.1,4.7-2.7C11,0,12.8-0.1,14.6,0.1c1.8,0.2,3.5,0.8,5,1.7L19.9,2
	l0.1,0L20,2.1l0.1,0.1l0.5,0.4C20.8,2.6,21,2.8,21.2,3l0.5,0.5c0.3,0.3,0.6,0.6,0.9,1c0.3,0.4,0.5,0.7,0.8,1.1
	c0.9,1.5,1.5,3.1,1.7,4.8c0.2,1.7,0,3.3-0.6,4.9c-0.3,0.8-0.6,1.5-1,2.1l-0.1,0.1c0,0,0,0,0,0.1l0,0l0,0.1L23,17.8l-0.3,0.4
	c-0.3,0.3-0.5,0.6-0.8,0.9c-1.1,1.1-2.4,1.9-3.8,2.3c-1.4,0.5-2.8,0.6-4.1,0.4c-1.3-0.2-2.6-0.6-3.6-1.2c-0.1-0.1-0.3-0.2-0.4-0.2
	l-0.1-0.1l0,0c0,0,0,0-0.1,0l0,0l-0.2-0.1c-0.2-0.2-0.4-0.3-0.7-0.5c-0.2-0.2-0.5-0.4-0.6-0.6c-0.2-0.2-0.4-0.4-0.5-0.6
	c-0.7-0.9-1.1-1.8-1.4-2.7C6,14.8,5.9,14,5.9,13.2c0-1.6,0.4-2.7,0.8-3.5C6.8,9.3,7,9.1,7.1,8.9c0.1-0.2,0.2-0.3,0.2-0.3
	c0.2-0.3,0.5-0.4,0.8-0.2c0.3,0.2,0.4,0.5,0.2,0.8l0,0.1c0,0,0,0.1-0.1,0.2c-0.1,0.2-0.2,0.4-0.4,0.7c-0.3,0.6-0.6,1.7-0.6,3
	c0,0.7,0.1,1.4,0.4,2.1c0.3,0.7,0.7,1.5,1.2,2.2c0.3,0.4,0.6,0.7,1,1c0.2,0.2,0.4,0.3,0.6,0.5l0.2,0.1l0,0c-0.1,0,0,0,0,0l0,0l0.1,0
	c0.1,0.1,0.2,0.1,0.3,0.2c0.9,0.5,2,0.8,3.1,0.9c1.1,0.1,2.3,0,3.5-0.4c1.1-0.4,2.2-1.1,3.1-2c0.2-0.2,0.4-0.5,0.6-0.7l0.3-0.4
	l0.2-0.2l0-0.1l0,0c0,0.1,0,0,0,0l0.1-0.1c0.3-0.6,0.6-1.2,0.8-1.8c0.4-1.3,0.6-2.7,0.4-4.1c-0.3-2.8-2-5.5-4.6-6.9
	C16,2.1,12.8,1.8,10,2.7C8.5,3.2,7.3,4,6.2,5C5.9,5.2,5.6,5.5,5.4,5.8L5.1,6.2C5,6.3,4.9,6.5,4.8,6.6L4.4,7.1l0,0.1c0.1-0.1,0,0,0,0
	l0,0L4.3,7.3L4.2,7.6C4,7.9,3.8,8.2,3.7,8.6c-0.6,1.3-1,2.8-1,4.2c-0.1,1.4,0.1,2.8,0.5,4.2c0.8,2.6,2.5,4.9,4.6,6.3
	c2.1,1.5,4.5,2.2,6.7,2.3c2.2,0.2,4.2-0.3,5.9-0.9c1.7-0.7,3-1.6,3.9-2.4c0.2-0.2,0.4-0.4,0.7-0.6c0.1-0.1,0.2-0.2,0.3-0.3
	c0.1-0.1,0.2-0.2,0.2-0.3c0.3-0.4,0.6-0.6,0.8-1c0.4-0.6,0.7-1,0.7-1c0.5-0.8,1.6-1,2.4-0.4C30,19.2,30.2,20.3,29.7,21.1
	C29.7,21,29.7,21.1,29.7,21.1z"/>
</svg>
