<?xml version="1.0" encoding="utf-8"?>
<!-- Generator: Adobe Illustrator 19.1.0, SVG Export Plug-In . SVG Version: 6.00 Build 0)  -->
<!DOCTYPE svg PUBLIC "-//W3C//DTD SVG 1.1//EN" "http://www.w3.org/Graphics/SVG/1.1/DTD/svg11.dtd">
<svg version="1.1" id="Layer_1" xmlns="http://www.w3.org/2000/svg" xmlns:xlink="http://www.w3.org/1999/xlink" x="0px" y="0px"
	 width="50px" height="50px" viewBox="0 0 50 50" style="enable-background:new 0 0 50 50;" xml:space="preserve">
<style type="text/css">
	.st0{fill:#231F20;}
</style>
<path class="st0" d="M29.6,42.2c0,0,0-0.1,0-0.1v-4.9c0-0.1,0-0.2-0.1-0.4c3.7-1.7,6.3-5.4,6.3-9.7c0-2.1-1.1-4.4-2.3-7.1
	c-2.2-4.7-4.9-10.4-4-19c0-0.3-0.1-0.6-0.3-0.8s-0.5-0.3-0.8-0.3c-6.3,0-13.9,21.9-13.9,27.2c0,4.3,2.6,8,6.3,9.7
	c0,0.1-0.1,0.2-0.1,0.4v4.9c0,0,0,0.1,0,0.1c-2,1.4-3.3,3.7-3.3,6.3c0,0.2,0,0.4,0,0.6c0,0.6,0.5,1,1.1,1h13.3c0.6,0,1-0.5,1.1-1.1
	c0-0.2,0-0.4,0-0.6C32.9,45.9,31.6,43.6,29.6,42.2z M16.6,27.1c0-1.9,0.8-5.2,2.1-8.8c1,0.5,3.1,1.7,3.6,3.5c1.3,4,5.3,3.6,6.7,0.8
	c0.7-1.4,0.9-3.5,0.9-5.1c0.5,1.3,1.1,2.5,1.6,3.5c1.2,2.5,2.1,4.5,2.1,6.2c0,4.7-3.8,8.5-8.5,8.5S16.6,31.8,16.6,27.1z M22.8,41
	v-2.8h4.7V41H27c-0.6-0.1-1.2-0.2-1.9-0.2c-0.6,0-1.3,0.1-1.9,0.2H22.8z M19.6,48c0.2-2.3,1.9-4.3,4.1-4.9h3
	c2.2,0.6,3.9,2.5,4.1,4.9H19.6z"/>
</svg>
