<?xml version="1.0" encoding="utf-8"?>
<!-- Generator: Adobe Illustrator 19.1.0, SVG Export Plug-In . SVG Version: 6.00 Build 0)  -->
<!DOCTYPE svg PUBLIC "-//W3C//DTD SVG 1.1//EN" "http://www.w3.org/Graphics/SVG/1.1/DTD/svg11.dtd">
<svg version="1.1" id="Layer_1" xmlns="http://www.w3.org/2000/svg" xmlns:xlink="http://www.w3.org/1999/xlink" x="0px" y="0px"
	 width="50px" height="50px" viewBox="0 0 50 50" style="enable-background:new 0 0 50 50;" xml:space="preserve">
<style type="text/css">
	.st0{fill:#231F20;}
</style>
<path class="st0" d="M41,35.4L26,0.8c-0.2-0.4-0.5-0.6-1-0.6c-0.4,0-0.8,0.2-1,0.6l-15,34.6c0,0.1,0,0.1-0.1,0.2c0,0.1,0,0.1,0,0.2
	c0,0,0,0.1,0,0.1V49c0,0.6,0.5,1,1,1h30c0.6,0,1-0.5,1-1V36.2C41.1,35.9,41.1,35.6,41,35.4z M31.1,17.7l7.4,17H11.6l7.4-17H31.1z
	 M29.3,36.8v11.1h-8.9V36.8H29.3z M11.1,36.8h7.2v11.1h-7.2V36.8z M31.3,47.9V36.8h7.6v11.1H31.3z"/>
</svg>
